<svg xmlns="http://www.w3.org/2000/svg" overflow="hidden"><defs><symbol id="icon-train" viewBox="0 0 60 32">
<path d="M47.070 0.071c-0.071 0.047-0.109 0.127-0.109 0.212 0 0.071 0.245 1.614 0.543 3.422s0.543 3.309 0.543 3.332c0 0.024-0.175 0.042-0.387 0.042-0.217 0-0.42 0.019-0.453 0.042-0.042 0.024-0.057 0.132-0.047 0.363l0.014 0.326 0.274 0.014c0.189 0.009 0.269 0.033 0.255 0.071-0.009 0.038-0.156 0.061-0.401 0.071l-0.387 0.014v-0.618c0-0.703-0.052-0.897-0.278-1.015-0.127-0.066-0.359-0.071-1.779-0.061l-1.633 0.014-0.137 0.156-0.142 0.16 0.028 1.973h-0.354l-0.009-2.728-0.014-2.723-0.118-0.227c-0.156-0.307-0.448-0.566-0.779-0.689-0.255-0.094-0.349-0.104-1.128-0.090s-0.873 0.024-1.071 0.123c-0.302 0.146-0.552 0.401-0.699 0.713l-0.123 0.264-0.014 2.676-0.014 2.681h-1.789v-0.887c0-0.826-0.009-0.901-0.104-1.095-0.066-0.123-0.175-0.25-0.274-0.307-0.156-0.090-0.245-0.094-1.992-0.094-1.77 0-1.827 0.005-1.954 0.099-0.316 0.236-0.326 0.264-0.34 1.322l-0.014 0.963h-1.27l-0.009-0.793-0.014-0.788-2.157-0.014-2.162-0.009v1.605h-0.566v-0.708h-0.519v-0.165c0-0.241-0.090-0.401-0.245-0.434l-0.132-0.028v-2.506c0-1.893-0.014-2.525-0.057-2.568-0.076-0.076-0.566-0.076-0.642 0-0.042 0.042-0.057 0.68-0.057 2.572 0 2.412-0.005 2.516-0.085 2.516-0.151 0-0.245 0.156-0.245 0.392v0.222h-7.622l0.019-0.411c0.033-0.906-0.156-5.947-0.231-6.022-0.019-0.024-1.704 0.080-3.733 0.227l-3.7 0.264-5.64 3.134v16.071h0.614v0.425h-0.713l0.014 0.415 0.014 0.411 0.684 0.028v2.638h0.717l-0.028 0.127c-0.156 0.75-0.156 1.798 0.009 2.398 0.33 1.222 1.067 2.27 2.053 2.922 0.623 0.411 1.086 0.604 1.784 0.76 0.264 0.057-0.208 0.066-3.979 0.066l-4.286 0.005v0.661h60.413v-0.661l-5.484-0.005c-5.3 0-5.48-0.005-5.206-0.085 0.411-0.118 0.703-0.26 1.038-0.496 0.845-0.604 1.326-1.506 1.378-2.591l0.028-0.505h2.818v-0.897h1.982v-0.448h0.755v0.802l0.335 0.51c0.179 0.278 0.349 0.496 0.373 0.481 0.066-0.042 0.061-3.847 0-3.847-0.028 0-0.198 0.227-0.378 0.505-0.312 0.477-0.33 0.519-0.33 0.779v0.274h-0.75l-0.014-0.387-0.014-0.392-0.977-0.014-0.982-0.009v-0.33h-3.634v-0.33h2.837l-0.014-0.363c-0.014-0.354-0.019-0.368-0.132-0.382-0.099-0.009-0.217-0.175-0.694-0.944l-0.581-0.93v-1.152l-0.387-0.019-0.392-0.014 0.434-0.009c0.477-0.009 0.533-0.042 0.533-0.33 0-0.094 0.033-0.151 0.118-0.198 0.123-0.066 0.354-0.368 0.354-0.463 0-0.033 0.033-0.057 0.071-0.057s0.113-0.042 0.165-0.094c0.094-0.094 0.094-0.156 0.094-5.050s0-4.956-0.094-5.050c-0.052-0.052-0.123-0.094-0.16-0.094s-0.113-0.076-0.17-0.165c-0.057-0.090-0.165-0.203-0.241-0.245-0.127-0.076-0.137-0.099-0.137-0.373 0-0.392-0.061-0.444-0.533-0.444-0.434 0-0.505 0.052-0.505 0.363 0 0.208-0.005 0.212-0.085 0.142-0.151-0.137-0.425-0.222-0.708-0.222-0.203 0-0.297-0.024-0.345-0.080-0.085-0.094-0.335-0.203-0.486-0.203-0.061 0-0.123-0.033-0.142-0.071-0.019-0.057 0.024-0.071 0.222-0.071 0.137 0 0.274-0.024 0.307-0.057 0.076-0.076 0.076-0.566 0-0.642-0.033-0.033-0.184-0.057-0.354-0.057-0.283 0-0.297-0.005-0.278-0.109 0.014-0.057 0.057-0.401 0.099-0.765 0.212-1.888 0.472-3.705 0.661-4.673 0.217-1.1 0.231-1.326 0.085-1.444-0.057-0.052-0.458-0.071-1.897-0.080-1.624-0.014-1.831-0.009-1.926 0.061zM16.113 2.015c0.019 0.255 0.038 0.585 0.052 0.732 0.014 0.151 0.005 0.274-0.014 0.274s-2.851 0.444-6.296 0.982c-3.45 0.538-6.254 0.968-6.23 0.949 0.019-0.014 1.189-0.67 2.601-1.454l2.568-1.425 1.963-0.142c1.081-0.080 2.61-0.194 3.403-0.25 0.793-0.061 1.548-0.113 1.685-0.118l0.241-0.005 0.028 0.458zM16.208 4.234c0.014 0.595 0.038 1.218 0.047 1.392l0.024 0.321h-13.022v-0.779l6.362-0.996c3.497-0.552 6.405-1.001 6.457-1.005 0.099-0.005 0.104 0.009 0.132 1.067zM26.383 20.366c0 0.156 0.009 0.165 0.16 0.165 0.146 0 0.16-0.014 0.189-0.165l0.033-0.165h1.794l-0.014 0.222-0.014 0.227-11.28 0.024-0.094 0.179-0.094 0.175h-0.647l-0.005-0.415-0.009-0.411h9.982v0.165zM32.614 20.437v0.236h-3.493v-0.472h3.493v0.236zM39.127 20.625v0.425h-5.111l-0.373-0.217-0.368-0.217v-0.415h5.852v0.425zM43.592 20.319c0.165 0.085 0.293 0.118 0.496 0.118 0.236 0 0.278 0.014 0.278 0.085 0 0.17 0.094 0.198 0.67 0.198h0.557v0.33l-5.819-0.024-0.019-0.415-0.024-0.411h3.639l0.222 0.118zM51.917 20.271c0 0.038-0.009 0.071-0.019 0.071s-0.028-0.033-0.047-0.071c-0.014-0.038-0.005-0.071 0.019-0.071 0.028 0 0.047 0.033 0.047 0.071zM51.342 20.517c0.009 0.042-0.042 0.061-0.175 0.061-0.184 0-0.236-0.038-0.16-0.113 0.052-0.052 0.312-0.009 0.335 0.052zM53.069 23.372l0.132 0.227h-0.434v-0.732l0.085 0.142c0.047 0.076 0.146 0.241 0.217 0.363zM7.514 25.477c0.444 0.363 0.5 0.425 0.477 0.529-0.014 0.066-0.042 0.132-0.057 0.156-0.019 0.019-0.703 0.028-1.52 0.024l-1.482-0.014 0.014-0.189c0.005-0.104 0.047-0.354 0.090-0.557l0.076-0.363h0.949l0.949 0.005 0.505 0.411zM8.708 25.166c-0.104 0.052-0.222 0.127-0.264 0.16-0.066 0.057-0.099 0.047-0.245-0.061-0.094-0.076-0.17-0.146-0.175-0.17 0-0.019 0.198-0.033 0.439-0.033l0.434 0.005-0.189 0.099zM13.513 25.378c0.042 0.179 0.085 0.434 0.104 0.566l0.033 0.25h-3.021l-0.057-0.179c-0.033-0.094-0.090-0.222-0.127-0.283-0.061-0.104-0.052-0.127 0.16-0.387l0.227-0.283h2.61l0.071 0.316zM15.009 25.095c0 0.024-0.033 0.208-0.071 0.415-0.222 1.237 0.057 2.572 0.774 3.658 0.264 0.406 0.93 1.067 1.35 1.345 0.614 0.406 1.076 0.599 1.775 0.755 0.264 0.057-0.26 0.061-4.276 0.061-4.021 0-4.54-0.005-4.276-0.061 1.888-0.411 3.285-1.737 3.832-3.634 0.17-0.576 0.175-1.878 0.014-2.468-0.028-0.104-0.024-0.104 0.425-0.104 0.25 0 0.453 0.014 0.453 0.033zM18.077 25.473c0.274 0.222 0.496 0.434 0.491 0.472-0.014 0.274 0.132 0.25-1.529 0.25h-1.51v-0.179c0-0.203 0.080-0.675 0.146-0.84l0.042-0.113h1.864l0.496 0.411zM19.398 25.081c0 0.005-0.104 0.080-0.231 0.16l-0.236 0.142-0.179-0.156-0.179-0.16 0.415-0.005c0.227 0 0.411 0.009 0.411 0.019zM24.061 25.237c0.057 0.189 0.151 0.736 0.151 0.873 0 0.080-0.104 0.085-1.501 0.085h-1.501l-0.236-0.604 0.463-0.529h2.572l0.052 0.175zM25.581 25.109c0 0.024-0.033 0.245-0.076 0.481-0.165 0.934 0 2.067 0.425 2.94 0.684 1.407 1.954 2.402 3.478 2.737 0.264 0.057-0.26 0.061-4.253 0.061-2.506 0-4.512-0.009-4.46-0.024 0.968-0.203 1.718-0.557 2.393-1.123 1.218-1.029 1.897-2.69 1.737-4.262-0.028-0.255-0.071-0.538-0.094-0.628-0.028-0.085-0.047-0.175-0.047-0.194 0-0.024 0.203-0.038 0.448-0.038 0.269 0 0.448 0.019 0.448 0.047zM28.658 25.468c0.264 0.227 0.486 0.439 0.481 0.472-0.014 0.278 0.132 0.255-1.529 0.255h-1.51v-0.165c0-0.165 0.127-0.864 0.17-0.93 0.014-0.024 0.448-0.038 0.963-0.038h0.934l0.491 0.406zM29.994 25.109c-0.014 0.024-0.057 0.047-0.085 0.047-0.033 0-0.132 0.052-0.227 0.113l-0.165 0.113-0.189-0.16-0.184-0.156 0.439-0.005c0.283 0 0.43 0.019 0.411 0.047zM36.72 25.317v0.255l-0.293-0.066c-0.165-0.042-0.477-0.113-0.699-0.165-0.359-0.085-0.467-0.142-0.472-0.245 0-0.019 0.33-0.033 0.732-0.033h0.732v0.255zM33.397 25.416c0.722 0.17 1.331 0.335 1.35 0.368 0.019 0.028 0.038 0.137 0.038 0.231v0.179h-3.006l-0.047-0.156c-0.028-0.080-0.080-0.217-0.113-0.297-0.057-0.146-0.052-0.16 0.142-0.392 0.113-0.132 0.231-0.241 0.264-0.241s0.651 0.137 1.373 0.307zM36.045 26.029c0.278 0.066 0.547 0.132 0.595 0.146 0.076 0.024 0.080 0.127 0.080 1.27v1.246l0.203 0.028c0.109 0.014 1.539 0.024 3.172 0.014l2.973-0.014 0.014-0.533 0.014-0.529h2.45v0.401c0 1.482 0.901 2.704 2.336 3.167l0.33 0.109h-8.519c-7.401-0.005-8.477-0.009-8.212-0.071 0.925-0.198 1.949-0.769 2.572-1.44 0.533-0.571 1.001-1.392 1.199-2.11 0.123-0.444 0.212-1.227 0.179-1.553-0.019-0.189-0.009-0.25 0.038-0.25 0.033 0 0.293 0.052 0.576 0.118zM8.061 26.964c-0.009 0.033-0.448 0.585-0.982 1.227-1.1 1.326-0.963 1.255-1.35 0.708-0.283-0.396-0.566-1.005-0.68-1.482-0.052-0.217-0.094-0.425-0.094-0.458 0-0.042 0.345-0.057 1.562-0.057 1.251 0 1.558 0.014 1.543 0.061zM13.593 26.988c0 0.165-0.184 0.817-0.316 1.109-0.156 0.359-0.477 0.883-0.538 0.883-0.024 0-0.547-0.415-1.166-0.93-0.614-0.51-1.123-0.93-1.133-0.939-0.009-0.005 0.005-0.057 0.038-0.109 0.052-0.099 0.076-0.099 1.581-0.099 1.458 0 1.534 0.005 1.534 0.085zM18.643 26.955c0 0.080-1.945 2.402-1.987 2.374-0.094-0.057-0.481-0.609-0.651-0.925-0.189-0.354-0.392-0.949-0.448-1.303l-0.028-0.198h1.558c1.067 0 1.558 0.014 1.558 0.052zM24.146 27.139c-0.038 0.269-0.231 0.878-0.373 1.156-0.146 0.297-0.406 0.684-0.453 0.684-0.033 0-1.024-0.802-2.19-1.775-0.109-0.094-0.123-0.127-0.080-0.208 0.047-0.090 0.094-0.094 1.591-0.094h1.539l-0.033 0.236zM29.206 26.973c-0.009 0.038-0.448 0.59-0.977 1.227-1.104 1.34-0.958 1.274-1.402 0.609-0.354-0.529-0.581-1.104-0.699-1.756l-0.024-0.151h1.558c1.345 0 1.558 0.009 1.543 0.071zM34.733 27.124c-0.109 0.581-0.345 1.175-0.67 1.676l-0.146 0.222-0.217-0.175c-0.118-0.094-0.642-0.529-1.17-0.968-0.85-0.708-0.949-0.802-0.906-0.883 0.047-0.090 0.109-0.094 1.6-0.094h1.548l-0.038 0.222zM11.389 28.691c0.51 0.425 0.93 0.788 0.93 0.802-0.005 0.052-0.519 0.453-0.817 0.632-0.387 0.231-0.93 0.439-1.406 0.529-0.212 0.038-0.392 0.071-0.401 0.071s-0.019-0.684-0.019-1.524v-1.524l0.156-0.076c0.151-0.071 0.151-0.071 0.387 0.123 0.132 0.109 0.656 0.547 1.171 0.968zM21.796 28.555c0.604 0.496 1.095 0.925 1.086 0.949-0.009 0.019-0.16 0.156-0.345 0.302-0.552 0.439-1.378 0.793-2.086 0.892l-0.203 0.028v-3.049l0.156-0.076c0.123-0.061 0.165-0.061 0.222-0.014 0.038 0.028 0.566 0.467 1.171 0.968zM32.368 28.545l1.147 0.949-0.345 0.274c-0.604 0.481-1.501 0.868-2.114 0.916l-0.212 0.019-0.014-1.515-0.009-1.51 0.151-0.076c0.085-0.042 0.179-0.057 0.203-0.038 0.028 0.019 0.562 0.458 1.194 0.982zM8.798 27.639c0.066 0.024 0.076 0.208 0.076 1.562v1.529l-0.175-0.028c-0.628-0.109-1.27-0.335-1.676-0.599-0.208-0.127-0.222-0.156-0.17-0.231 0.061-0.080 1.845-2.251 1.864-2.256 0.005-0.005 0.038 0.009 0.080 0.024zM19.445 29.201v1.529l-0.175-0.028c-0.623-0.109-1.204-0.316-1.68-0.604-0.194-0.118-0.217-0.146-0.165-0.212 0.033-0.042 0.472-0.571 0.972-1.175 0.623-0.746 0.934-1.086 0.977-1.067 0.061 0.019 0.071 0.26 0.071 1.558zM30.008 29.182l0.009 1.543-0.198-0.028c-0.42-0.066-1.019-0.269-1.421-0.481-0.231-0.123-0.42-0.241-0.42-0.264-0.005-0.071 1.912-2.346 1.963-2.327 0.038 0.014 0.057 0.51 0.066 1.558zM47.906 27.705c0.052 0.028 0.080 0.080 0.066 0.118-0.024 0.057-0.151 0.071-0.708 0.071-0.628 0-0.68-0.005-0.68-0.085 0-0.047 0.014-0.104 0.033-0.118 0.047-0.052 1.189-0.038 1.288 0.014zM51.077 27.776l0.024 0.123-0.684-0.014c-0.661-0.014-0.684-0.019-0.722-0.123l-0.038-0.104h1.402l0.019 0.118zM47.566 29.031l-0.434 0.519-0.090-0.109c-0.109-0.132-0.349-0.628-0.392-0.807l-0.028-0.127h1.383l-0.439 0.524zM51.002 28.706c-0.080 0.26-0.227 0.557-0.269 0.557-0.019 0-0.241-0.17-0.496-0.378l-0.453-0.378h1.279l-0.061 0.198zM50.077 29.494c0.142 0.118 0.269 0.222 0.283 0.231 0.085 0.061-0.75 0.5-1.048 0.557l-0.179 0.028v-0.684c0-0.604 0.009-0.694 0.080-0.736 0.066-0.033 0.137 0 0.345 0.175 0.142 0.118 0.378 0.316 0.519 0.43zM48.566 29.626v0.684l-0.175-0.033c-0.222-0.038-0.628-0.194-0.741-0.283-0.080-0.061-0.061-0.094 0.345-0.585 0.293-0.349 0.458-0.51 0.5-0.491 0.057 0.019 0.071 0.151 0.071 0.708z"></path>
<path d="M53.9 4.342c-0.047 0.090-0.099 0.094-1.208 0.094-1.737 0-1.666-0.071-1.671 1.737 0 1.288 0.014 1.392 0.255 1.614l0.132 0.118 1.208 0.014c1.128 0.014 1.218 0.019 1.298 0.104 0.118 0.132 0.529 0.132 0.599 0.005 0.028-0.061 0.047-0.727 0.047-1.845s-0.019-1.784-0.047-1.845c-0.076-0.132-0.543-0.132-0.614 0.005z"></path>
</symbol></defs></svg>